<?xml version="1.0" encoding="UTF-8"?><svg id="Layer_1" xmlns="http://www.w3.org/2000/svg" xmlns:xlink="http://www.w3.org/1999/xlink" viewBox="0 0 215.23 214.41"><defs><style>.cls-1{fill:url(#New_Gradient_2-14);}.cls-1,.cls-2,.cls-3,.cls-4,.cls-5,.cls-6,.cls-7,.cls-8,.cls-9,.cls-10,.cls-11,.cls-12,.cls-13,.cls-14,.cls-15,.cls-16,.cls-17,.cls-18{fill-rule:evenodd;}.cls-2{fill:url(#New_Gradient_2-15);}.cls-3{fill:url(#New_Gradient_2-12);}.cls-4{fill:url(#New_Gradient_2-13);}.cls-5{fill:url(#New_Gradient_2-16);}.cls-6{fill:url(#New_Gradient_2-18);}.cls-7{fill:url(#New_Gradient_2-10);}.cls-8{fill:url(#New_Gradient_2-11);}.cls-9{fill:url(#New_Gradient_2-17);}.cls-10{fill:url(#New_Gradient_2-5);}.cls-11{fill:url(#New_Gradient_2-2);}.cls-12{fill:url(#New_Gradient_2-3);}.cls-13{fill:url(#New_Gradient_2-4);}.cls-14{fill:url(#New_Gradient_2-9);}.cls-15{fill:url(#New_Gradient_2-8);}.cls-16{fill:url(#New_Gradient_2-7);}.cls-17{fill:url(#New_Gradient_2-6);}.cls-19{fill:url(#New_Gradient_2-19);}.cls-18{fill:url(#New_Gradient_2);}</style><linearGradient id="New_Gradient_2" x1="183.33" y1="116.08" x2="143.77" y2="34.98" gradientTransform="translate(-19.67 63.93) rotate(-23.26)" gradientUnits="userSpaceOnUse"><stop offset=".08" stop-color="#177bab"/><stop offset=".92" stop-color="#5c9ad3"/></linearGradient><linearGradient id="New_Gradient_2-2" x1="180.44" y1="66.41" x2="161.97" y2="28.54" xlink:href="#New_Gradient_2"/><linearGradient id="New_Gradient_2-3" x1="138.83" y1="149.53" x2="113.88" y2="98.38" xlink:href="#New_Gradient_2"/><linearGradient id="New_Gradient_2-4" x1="181.25" y1="71.99" x2="165.82" y2="40.36" xlink:href="#New_Gradient_2"/><linearGradient id="New_Gradient_2-5" x1="65.64" y1="118.63" x2="64.32" y2="115.92" xlink:href="#New_Gradient_2"/><linearGradient id="New_Gradient_2-6" x1="109.02" y1="65.2" x2="98.96" y2="44.57" xlink:href="#New_Gradient_2"/><linearGradient id="New_Gradient_2-7" x1="118.56" y1="72.56" x2="107.27" y2="49.41" xlink:href="#New_Gradient_2"/><linearGradient id="New_Gradient_2-8" x1="168.46" y1="133.7" x2="143.56" y2="82.63" xlink:href="#New_Gradient_2"/><linearGradient id="New_Gradient_2-9" x1="167.36" y1="23.95" x2="165.45" y2="20.03" xlink:href="#New_Gradient_2"/><linearGradient id="New_Gradient_2-10" x1="100.25" y1="58.05" x2="92.38" y2="41.91" xlink:href="#New_Gradient_2"/><linearGradient id="New_Gradient_2-11" x1="132.23" y1="151.3" x2="116.25" y2="118.54" xlink:href="#New_Gradient_2"/><linearGradient id="New_Gradient_2-12" x1="127.94" y1="149.16" x2="118.46" y2="129.73" xlink:href="#New_Gradient_2"/><linearGradient id="New_Gradient_2-13" x1="136.5" y1="150.85" x2="114.64" y2="106.04" xlink:href="#New_Gradient_2"/><linearGradient id="New_Gradient_2-14" x1="165.96" y1="31.13" x2="161.71" y2="22.4" xlink:href="#New_Gradient_2"/><linearGradient id="New_Gradient_2-15" x1="159.57" y1="24.08" x2="158.4" y2="21.68" xlink:href="#New_Gradient_2"/><linearGradient id="New_Gradient_2-16" x1="173.1" y1="42.72" x2="164.12" y2="24.3" xlink:href="#New_Gradient_2"/><linearGradient id="New_Gradient_2-17" x1="81" y1="42.94" x2="80.7" y2="42.33" xlink:href="#New_Gradient_2"/><linearGradient id="New_Gradient_2-18" x1="174.77" y1="25.52" x2="172.55" y2="20.96" xlink:href="#New_Gradient_2"/><linearGradient id="New_Gradient_2-19" x1="0" y1="107.21" x2="214.66" y2="107.21" gradientTransform="matrix(1, 0, 0, 1, 0, 0)" xlink:href="#New_Gradient_2"/></defs><g><path class="cls-18" d="M215.23,34.57c-4.68,3.04-9.38,5.46-13.99,6.92-3.74,1.19-3.09,1.01-.66-1.18,6.54-5.9,9.95-11.04,8.37-14.96-2.71,3-5.88,5.33-9.48,7.2,.09,.17,.19,.34,.28,.5-22.37,9.62-44.74,19.23-67.12,28.85,.2,1.14,.41,2.3,.65,3.49,14.17-6.09,28.34-12.18,42.51-18.27,.15,.35,.3,.69,.45,1.04-14.21,6.27-28.42,12.54-42.62,18.81,.11,.52,.21,1.04,.33,1.57-.82-.23-1.66-.42-2.5-.62-15.07,6.65-30.15,13.3-45.22,19.95-.96,.95-1,1.17-.17,1.98,27.87-11.64,55.73-23.28,83.6-34.91l.55,1.25c-27.12,12-54.23,24-81.35,36,.61,.41,1.25,.78,1.91,1.12,21.27-9.14,42.55-18.29,63.82-27.43,.26,.59,.53,1.19,.79,1.78-20.02,9.1-40.03,18.19-60.05,27.29,1.81,.41,3.76,.59,5.85,.55,27.09-11.01,54.19-22.01,81.28-33.02l.45,1.04c-25.19,10.83-50.38,21.65-75.56,32.48-1.27,1.09-2.39,2.27-3.24,3.56,11.83-5.08,23.65-10.17,35.48-15.25,.2,.47,.4,.94,.6,1.41-8.39,3.61-16.79,7.22-25.18,10.82,.07,.18,.15,.36,.22,.53,6-1.78,12-3.56,18-5.34,.17,.43,.34,.87,.51,1.3l-27.39,12.71c1.29,.46,2.63,.76,4.01,.89,25.05-10.44,50.1-20.89,75.14-31.33,.02,.06,.05,.11,.07,.17-22.81,10.18-45.62,20.36-68.44,30.53,2.46-.65,5.07-1.74,7.86-3.33-1.04,1.61-1.66,3.14-1.95,4.53,27.09-11.3,54.18-22.6,81.27-33.91,.41-7.11-.3-14.51-2.33-22.11,7.35-4.41,12.04-10.11,13.27-16.62Z"/><path class="cls-11" d="M167.78,21.38c-12.17,5.46-24.34,10.93-36.52,16.39-.28,3.27-.36,6.74-.19,10.47,7.3-3.14,14.6-6.28,21.9-9.41,.19,.44,.38,.89,.57,1.33-7.44,3.36-14.9,6.69-22.35,10.03,.09,1.32,.21,2.67,.35,4.06,18.43-7.92,36.85-15.84,55.28-23.76-5.97-5.23-12.54-8.1-19.04-9.11Z"/><path class="cls-12" d="M194.75,104.47c.14-.24,.26-.49,.4-.73-23.55,10.12-47.1,20.25-70.65,30.37-7.67,7.11-17.54,11.02-27.76,11.93l-5.44,2.34c1.55,.53,3.1,1.02,4.66,1.44,32.12-13.81,64.24-27.61,96.35-41.42,.84-1.3,1.66-2.61,2.44-3.94Z"/><path class="cls-13" d="M132.2,59.28c26.74-11.31,47.75-20.07,58.91-24.49-.23-.28-.52-.64-.95-1.09-.66-.71-1.34-1.38-2.02-2.03-18.8,8.08-37.6,16.16-56.4,24.24,.14,1.1,.28,2.22,.46,3.37Z"/><path class="cls-10" d="M86.62,146.6c.41-.17,.83-.33,1.24-.5-1.08-.08-2.16-.19-3.23-.34,.66,.3,1.33,.56,1.99,.84Z"/><path class="cls-17" d="M107.25,66.44c-9.8,4.21-19.59,8.42-29.39,12.63,1.17,.67,2.43,1.24,3.79,1.72,11.92-5.09,23.36-9.97,34.11-14.54-2.78-.04-5.62,.03-8.51,.19Z"/><path class="cls-16" d="M92.33,83c12.12-5.21,24.23-10.42,36.35-15.62-2.19-.39-4.46-.67-6.78-.85-11.97,5.14-23.94,10.29-35.91,15.43,2.13,.41,4.42,.64,6.88,.68-.18,.12-.36,.24-.54,.36Z"/><path class="cls-15" d="M122.92,109.93c.2,1.35,.81,2.47,1.76,3.29,4.62-1.83,9.24-3.65,13.86-5.48,.13,.27,.25,.54,.38,.8-4.3,1.85-8.6,3.7-12.9,5.54,2.63,1.22,6.67,.86,11.32-1.85-.06,.22-.13,.43-.19,.65,9.18-3.63,18.35-7.26,27.53-10.9l.51,1.22c-9.71,4.37-19.42,8.75-29.13,13.12-.68,1.91-1.46,3.72-2.32,5.44,9.54-3.94,19.08-7.88,28.62-11.82,.19,.45,.39,.89,.58,1.34-10.23,4.4-20.47,8.8-30.7,13.2-1.06,1.8-2.23,3.48-3.49,5.05,22.39-9.07,44.78-18.14,67.17-27.2,4.66-8.65,7.61-18.16,8.31-28.26-27.11,11.95-54.21,23.91-81.32,35.86Z"/><path class="cls-14" d="M139.47,18.33c-.64,1-1.3,2.35-1.86,3.66,1.86-.8,3.71-1.6,5.57-2.39,3.25-6.31,1.93-9.49-3.71-1.27Z"/><path class="cls-7" d="M91.21,68.01c-5.86,2.6-11.72,5.21-17.59,7.8,.79,.81,1.66,1.55,2.61,2.22,8.72-3.75,17.45-7.5,26.17-11.25-3.67,.31-7.41,.73-11.19,1.24Z"/><path class="cls-8" d="M122.02,152.12c16.98-7.3,33.95-14.6,50.93-21.89,2.61-2.2,5.13-4.51,7.5-6.96-22.57,9.7-45.13,19.4-67.7,29.1,3.1,.11,6.2,.01,9.27-.25Z"/><path class="cls-3" d="M167.99,134.16c-13.39,5.76-26.78,11.51-40.17,17.27,14.46-2.3,28.28-8.47,40.17-17.27Z"/><path class="cls-4" d="M98.83,150.54c1.49,.34,2.98,.64,4.47,.88,27.48-11.54,55.01-22.96,82.6-34.25,1.61-1.96,3.14-3.97,4.59-6.03-30.55,13.13-61.11,26.27-91.66,39.4Z"/><path class="cls-1" d="M132.42,29.79l13.93-5.99c2.02-2,3.58-3.84,4.71-5.42-5.92,2.54-11.83,5.09-17.75,7.63-.15,.57-.3,1.17-.45,1.8-.16,.65-.3,1.31-.44,1.98Z"/><path class="cls-2" d="M134,23.54l2.62-1.13c-.43-3.9-1.4-2.89-2.62,1.13Z"/><path class="cls-5" d="M151.01,22.76c.13,.31,.26,.61,.39,.92-6.47,2.78-12.94,5.56-19.41,8.34-.18,1.03-.33,2.09-.46,3.16,11.29-4.7,22.57-9.4,33.86-14.09-4.98-.43-9.87,.21-14.39,1.68Z"/><path class="cls-9" d="M70.8,71.42l1.24-.53c-.64,.11-1.07,.26-1.24,.53Z"/><path class="cls-6" d="M143.39,19.51l9.42-4.05c2.17-4.73-1.8-4.85-9.42,4.05Z"/></g><path class="cls-19" d="M187.63,187.6c0-2.65,0-5.11,0-7.57,0-10.36,.01-20.71-.02-31.07,0-1.04,.31-1.77,1.03-2.51,8.14-8.28,16.25-16.59,24.35-24.91,.41-.42,.62-1.03,.92-1.55,.21,.15,.42,.29,.63,.44,.03,.52,.09,1.04,.09,1.56,0,25.99,.02,51.99,.01,77.98,0,7.09-4.2,12.66-10.61,14.06-1.31,.29-2.69,.37-4.04,.37-61.99,.02-123.99,.01-185.98,0C5.99,214.41,0,208.45,0,200.41,0,143.05,0,85.68,0,28.31c0-4.88-.02-9.75,0-14.63C.04,6.14,6.08,.01,13.59,0c35.24-.02,70.49,0,105.73,0,.39,0,.79,0,1.27,0V26.96H26.89V187.6H187.63Z"/></svg>